# xmcd CD database file
#
# Track frame offsets:
#	150
#	13295
#	26629
#	40670
#	54298
#	66928
#	79492
#	97951
#	109909
#	122923
#	134618
#	147302
#	161761
#	176097
#	188786
#	201884
#	216114
#	232414
#	243487
#	256289
#	269248
#
# Disc length: 3753 seconds
#
# Revision: 0
# Processed by: cddbd v1.5.2PL0 Copyright (c) Steve Scherf et al.
# Submitted via: CDex 1.51
#
DISCID=4a0ea715
DTITLE=Sidney Bechet - legends Jazz and blues
DYEAR=2004
DGENRE=Jazz
TTITLE0=Shake it and brake it
TTITLE1=Georgia Cabin
TTITLE2=Shag
TTITLE3=Perdido Street Blues
TTITLE4=High Society
TTITLE5=Polka Dot Rag
TTITLE6=Summertime
TTITLE7=I'm Comin Virginia
TTITLE8=Ja-Da
TTITLE9=LimeHouse Blues
TTITLE10=Stompy Jones
TTITLE11=I've found a New Baby
TTITLE12=I Thought, I Heard Buddy Bolden Say
TTITLE13=Sweety Dear
TTITLE14=Maple Leaf Rag
TTITLE15=Oh, Did'nt He Ramble
TTITLE16=Really The Blues
TTITLE17=Jungle Drums
TTITLE18=Old Man Blues
TTITLE19=Ain't Misbehavin
TTITLE20=Black Stick Blues
EXTD=YEAR: 2004
EXTT0=
EXTT1=
EXTT2=
EXTT3=
EXTT4=
EXTT5=
EXTT6=
EXTT7=
EXTT8=
EXTT9=
EXTT10=
EXTT11=
EXTT12=
EXTT13=
EXTT14=
EXTT15=
EXTT16=
EXTT17=
EXTT18=
EXTT19=
EXTT20=
PLAYORDER=
